<?xml version="1.0" encoding="UTF-8" standalone="no"?>
<svg width="60px" height="60px" viewBox="0 0 60 60" version="1.1" xmlns="http://www.w3.org/2000/svg" xmlns:xlink="http://www.w3.org/1999/xlink" xmlns:sketch="http://www.bohemiancoding.com/sketch/ns">
    <!-- Generator: Sketch 3.2.2 (9983) - http://www.bohemiancoding.com/sketch -->
    <title>appicon</title>
    <desc>Created with Sketch.</desc>
    <defs></defs>
    <g id="Page-1" stroke="none" stroke-width="1" fill="none" fill-rule="evenodd" sketch:type="MSPage">
        <g id="appicon" sketch:type="MSLayerGroup">
            <path d="M20,10.0088711 C20,4.48112423 24.4720759,0 29.9905068,0 L60,0 L60,49.9911289 C60,55.5188758 55.5279241,60 50.0094932,60 L20,60 L20,10.0088711 L20,10.0088711 Z" id="Rectangle-19" fill="#4C4C4C" sketch:type="MSShapeGroup"></path>
            <path d="M27,36 L33,36 L33,24 L27,24 L27,12 L33,12 L33,0 L22,0 L10.0021973,0 C4.47813629,0 0,4.48521396 0,10.0088711 L0,60 L22,60 L33,60 L33,48 L27,48 L27,36 L27,36 Z" id="Rectangle-25" fill="#83C24B" sketch:type="MSShapeGroup"></path>
        </g>
    </g>
</svg>